<svg xmlns="http://www.w3.org/2000/svg" xmlns:xlink="http://www.w3.org/1999/xlink" version="1.1" style="" xml:space="preserve" width="1257" height="606"><rect id="backgroundrect" width="100%" height="100%" x="0" y="0" fill="none" stroke="none" class="" style=""/>
<style type="text/css">
	.st1{fill:#F9E90D;}
</style>
<g class="currentLayer" style=""><title>Layer 1</title><g id="svg_2" class="">
	<g id="svg_3">
		<path class="st1" d="M161.55999267578125,164.82707519531255 c24.09,-41.61 58.46,-75.19 102.16,-99.81 c26.29,-14.81 48.15,-21.71 52.73,-23.12 c8.57,-2.63 42.29,-12.49 87.85,-10.74 c61.22,2.35 104.69,24.16 115.66,29.92 c21.17,11.12 37.13,23.26 47.81,32.39 c14.09,-0.31000000000000005 28.17,-0.6200000000000001 42.26,-0.93 c-17.3,-17.03 -44.85,-40.38 -83.59,-59.53 c-58.08,-28.71 -109.05,-32.05 -122.45,-32.69 c-21.71,-1.03 -87.3,-1.77 -156.48,35.67 c-10.82,5.86 -38.08,21.49 -66.78,49.42 c-50.49,49.15 -79.19,106.52 -87.1,174.46 c11.64,0.07 23.27,0.37000000000000005 34.91,0.6200000000000001 C133.61999267578125,226.07707519531255 144.64999267578128,194.03707519531247 161.55999267578125,164.82707519531255 z" id="svg_4"/>
		<path class="st1" d="M407.69999267578123,576.1570751953125 c-20.41,1.17 -80.03,3.85 -141.65,-29.23 c-7.21,-3.87 -32.68,-18.06 -59.63,-44.34 c-34.47,-33.63 -58.04,-72.94 -70.56,-117.41 c-6.640000000000001,1.45 -13.68,1.6400000000000001 -20.35,1.6600000000000001 c-4.5600000000000005,0.010000000000000002 -9.11,-0.17 -13.65,-0.44000000000000006 c11.6,45.08 32.78,85.6 63.36,121.09 c21.21,24.45 45.48,44.63 72.44,60.27 c4.54,2.64 16.3,9.28 31.42,15.66 c60.49,25.53 117.97,22.84 137.37,21.73 c23.99,-1.37 76.1,-4.92 133.24,-36.39 c33.98,-18.72 57.84,-40.76 72.79,-56.75 H571.7799926757813 C549.9499926757812,529.5370751953126 491.7599926757813,571.3270751953125 407.69999267578123,576.1570751953125 z" id="svg_5"/>
		<rect x="664.6699829101562" y="138.9970703125" class="st1" width="30.3799991607666" height="327.25" id="svg_6"/>
		<path class="st1" d="M961.6699926757813,269.8970751953125 c-11.86,-16.49 -25.64,-28.86 -41.34,-37.11 c-15.7,-8.25 -33.24,-12.37 -52.63,-12.37 c-33.57,0 -62.28,12.08 -86.15,36.24 c-23.87,24.16 -35.81,53.24 -35.81,87.24 c0,34.72 11.83,64.2 35.48,88.43 c23.65,24.23 52.19,36.35 85.61,36.35 c18.81,0 36.13,-3.91 51.97,-11.72 c15.84,-7.8100000000000005 30.13,-19.46 42.86,-34.94 v40.58 h29.95 V226.4970751953125 h-29.95 V269.8970751953125 zM951.5899926757813,394.07707519531255 c-8.02,14.31 -19.47,25.65 -34.36,34.03 c-14.89,8.38 -30.64,12.57 -47.25,12.57 c-16.48,0 -31.9,-4.23 -46.28,-12.68 c-14.38,-8.45 -25.83,-20.27 -34.36,-35.44 c-8.52,-15.17 -12.79,-31.07 -12.79,-47.69 c0,-16.76 4.22,-32.66 12.68,-47.68 c8.45,-15.03 19.83,-26.7 34.14,-35.01 c14.31,-8.31 29.91,-12.46 46.82,-12.46 c26.3,0 48.44,9.18 66.44,27.53 c17.99,18.35 26.99,41.19 26.99,68.5 C963.6199926757813,363.6570751953125 959.6099926757813,379.7770751953125 951.5899926757813,394.07707519531255 z" id="svg_7"/>
		<polygon class="st1" points="1224.8099975585938,226.4970703125 1146.0199584960938,408.30706787109375 1064.8699340820312,226.4970703125 1032.7599487304688,226.4970703125 1129.6699829101562,444.71710205078125 1084.2200317382812,548.967041015625 1116.3099975585938,548.967041015625 1257.1499633789062,226.4970703125 " id="svg_8"/>
	</g>
	<g id="svg_9">
		<path d="M63.839992675781275,307.6570751953125 c3.52,-5.99 5.28,-12.47 5.28,-19.46 c0,-10.81 -3.83,-20.04 -11.49,-27.7 c-7.66,-7.66 -16.89,-11.49 -27.7,-11.49 H2.7799926757812443 c-0.7400000000000001,0 -1.3900000000000001,0.28 -1.9500000000000002,0.8300000000000001 c-0.56,0.56 -0.8300000000000001,1.2 -0.8300000000000001,1.9500000000000002 v110.53 c0,0.7400000000000001 0.28,1.3900000000000001 0.8300000000000001,1.9500000000000002 c0.56,0.56 1.2,0.8300000000000001 1.9500000000000002,0.8300000000000001 h44.56 c5.99,0 11.12,-2.13 15.38,-6.39 c4.26,-4.26 6.39,-9.39 6.39,-15.38 c0,-5.5600000000000005 -1.85,-10.41 -5.5600000000000005,-14.55 c-3.6500000000000004,-4.08 -8.19,-6.45 -13.620000000000001,-7.13 C55.809992675781245,318.18707519531245 60.43999267578124,313.5270751953125 63.839992675781275,307.6570751953125 zM58.73999267578125,331.83707519531254 c3.15,3.21 4.73,7.04 4.73,11.49 c0,4.45 -1.57,8.25 -4.73,11.39 c-3.15,3.15 -6.95,4.73 -11.4,4.73 h-41.69 v-32.33 h41.69 C51.789992675781264,327.1170751953125 55.589992675781275,328.68707519531245 58.73999267578125,331.83707519531254 zM29.92999267578125,321.45707519531254 h-24.27 v-66.8 h24.27 c9.26,0 17.17,3.2800000000000002 23.72,9.82 c6.55,6.55 9.82,14.45 9.82,23.72 c0,9.14 -3.27,16.99 -9.82,23.53 C47.099992675781266,318.21707519531253 39.18999267578124,321.45707519531254 29.92999267578125,321.45707519531254 z" id="svg_10"/>
		<path d="M109.41999267578126,285.8870751953125 h-0.28 c-8.77,0 -16.09,3.15 -21.96,9.45 c-5.87,6.3 -8.8,14.14 -8.8,23.53 v13.25 c0,9.08 3.24,16.83 9.73,23.25 c6.42,6.49 14.18,9.73 23.25,9.73 h0.37000000000000005 c5.25,0 10.19,-1.17 14.82,-3.52 c4.63,-2.35 8.52,-5.65 11.67,-9.91 c0.37000000000000005,-0.49000000000000005 0.52,-1.08 0.46,-1.7600000000000002 c-0.12000000000000001,-0.6800000000000002 -0.46,-1.23 -1.02,-1.6700000000000002 c-0.49000000000000005,-0.37000000000000005 -1.08,-0.52 -1.7600000000000002,-0.46 c-0.6800000000000002,0.12000000000000001 -1.24,0.46 -1.6700000000000002,1.02 c-5.62,7.6 -13.13,11.4 -22.51,11.4 h-0.37000000000000005 c-7.72,0 -14.33,-2.75 -19.83,-8.25 c-5.5,-5.5 -8.24,-12.11 -8.24,-19.83 v-4.17 h54.38 c0.6800000000000002,0 1.27,-0.25 1.7600000000000002,-0.7400000000000001 c0.49000000000000005,-0.49000000000000005 0.7400000000000001,-1.08 0.7400000000000001,-1.7600000000000002 v-6.58 c0,-9.39 -2.93,-17.23 -8.8,-23.53 C125.50999267578123,289.03707519531247 118.18999267578124,285.8870751953125 109.41999267578126,285.8870751953125 zM135.26999267578122,323.03707519531247 h-51.98 v-4.17 c0,-8.15 2.44,-14.88 7.32,-20.2 c4.88,-5.25 11.06,-7.88 18.53,-7.88 h0.28 c7.47,0 13.65,2.63 18.53,7.88 c4.88,5.3100000000000005 7.32,12.04 7.32,20.2 V323.03707519531247 z" id="svg_11"/>
		<path d="M184.55999267578125,285.8870751953125 h-0.37000000000000005 c-9.08,0 -16.83,3.21 -23.25,9.64 c-6.49,6.49 -9.73,14.27 -9.73,23.35 v13.25 c0,9.08 3.24,16.86 9.73,23.35 c6.42,6.42 14.17,9.64 23.25,9.64 h0.37000000000000005 c5.8,0 11.24,-1.45 16.31,-4.35 c4.88,-2.7800000000000002 8.8,-6.58 11.77,-11.4 v13.34 c0,0.6200000000000001 0.25,1.17 0.7400000000000001,1.6700000000000002 c0.43000000000000005,0.5 0.99,0.7400000000000001 1.6700000000000002,0.7400000000000001 c0.6800000000000002,0 1.27,-0.25 1.7600000000000002,-0.7400000000000001 c0.49000000000000005,-0.49000000000000005 0.7400000000000001,-1.05 0.7400000000000001,-1.6700000000000002 v-43.82 c0,-9.08 -3.24,-16.86 -9.73,-23.35 C201.38999267578123,289.0970751953125 193.63999267578123,285.8870751953125 184.55999267578125,285.8870751953125 zM212.62999267578124,332.1170751953125 c0,7.72 -2.75,14.33 -8.24,19.83 c-5.5,5.5 -12.11,8.25 -19.83,8.25 h-0.37000000000000005 c-7.72,0 -14.33,-2.75 -19.83,-8.25 c-5.5,-5.5 -8.25,-12.11 -8.25,-19.83 v-13.25 c0,-7.72 2.75,-14.33 8.25,-19.83 c5.5,-5.5 12.11,-8.25 19.83,-8.25 h0.37000000000000005 c7.72,0 14.33,2.75 19.83,8.25 c5.5,5.5 8.24,12.11 8.24,19.83 V332.1170751953125 z" id="svg_12"/>
		<path d="M296.0199926757813,286.06707519531255 c-0.6800000000000002,0 -1.27,0.22000000000000003 -1.7600000000000002,0.6500000000000001 c-0.43000000000000005,0.5 -0.6500000000000001,1.08 -0.6500000000000001,1.7600000000000002 v43.64 c0,7.78 -2.75,14.39 -8.25,19.83 c-5.5,5.5 -12.11,8.25 -19.83,8.25 h-0.28 c-7.78,0 -14.39,-2.75 -19.83,-8.25 c-5.5,-5.44 -8.25,-12.05 -8.25,-19.83 v-43.64 c0,-0.6800000000000002 -0.25,-1.27 -0.7400000000000001,-1.7600000000000002 c-0.5,-0.43000000000000005 -1.08,-0.6500000000000001 -1.7600000000000002,-0.6500000000000001 c-0.6800000000000002,0 -1.24,0.22000000000000003 -1.6700000000000002,0.6500000000000001 c-0.5,0.5 -0.7400000000000001,1.08 -0.7400000000000001,1.7600000000000002 v43.64 c0,9.08 3.21,16.86 9.64,23.35 c6.49,6.42 14.27,9.64 23.35,9.64 h0.28 c9.08,0 16.83,-3.21 23.25,-9.64 c6.42,-6.49 9.64,-14.27 9.64,-23.35 v-43.64 c0,-0.6800000000000002 -0.22000000000000003,-1.27 -0.6500000000000001,-1.7600000000000002 C297.2799926757813,286.28707519531247 296.68999267578124,286.06707519531255 296.0199926757813,286.06707519531255 z" id="svg_13"/>
		<path d="M349.4699926757812,360.2770751953125 h-5.84 c-7.66,0 -14.21,-2.72 -19.64,-8.15 c-5.44,-5.44 -8.15,-11.98 -8.15,-19.64 v-41.97 h22.05 c1.36,0 2.04,-0.6800000000000002 2.04,-2.04 c0,-1.36 -0.6800000000000002,-2.04 -2.04,-2.04 h-22.05 v-34.65 c0,-0.6800000000000002 -0.22000000000000003,-1.27 -0.6500000000000001,-1.7600000000000002 c-0.5,-0.49000000000000005 -1.08,-0.7400000000000001 -1.7600000000000002,-0.7400000000000001 c-0.6800000000000002,0 -1.24,0.25 -1.6700000000000002,0.7400000000000001 c-0.5,0.5 -0.7400000000000001,1.08 -0.7400000000000001,1.7600000000000002 v80.7 c0,8.96 3.18,16.65 9.54,23.07 c6.42,6.36 14.11,9.54 23.07,9.54 h5.84 c0.6800000000000002,0 1.27,-0.25 1.7600000000000002,-0.7400000000000001 c0.43000000000000005,-0.43000000000000005 0.6500000000000001,-0.99 0.6500000000000001,-1.6700000000000002 c0,-0.6800000000000002 -0.22000000000000003,-1.27 -0.6500000000000001,-1.7600000000000002 C350.7399926757812,360.4970751953125 350.1499926757813,360.2770751953125 349.4699926757812,360.2770751953125 z" id="svg_14"/>
		<path d="M427.1099926757812,286.6270751953125 c-0.6200000000000001,0 -1.17,0.22000000000000003 -1.6700000000000002,0.6500000000000001 c-0.5,0.5 -0.7400000000000001,1.08 -0.7400000000000001,1.7600000000000002 v42.9 c0,7.66 -2.6900000000000004,14.17 -8.06,19.55 c-5.44,5.44 -11.98,8.15 -19.64,8.15 h-0.28 c-7.6,0 -14.11,-2.72 -19.55,-8.15 c-5.44,-5.37 -8.15,-11.89 -8.15,-19.55 v-42.9 c0,-0.6800000000000002 -0.22000000000000003,-1.27 -0.6500000000000001,-1.7600000000000002 c-0.5,-0.43000000000000005 -1.08,-0.6500000000000001 -1.7600000000000002,-0.6500000000000001 c-0.6800000000000002,0 -1.24,0.22000000000000003 -1.6700000000000002,0.6500000000000001 c-0.5,0.5 -0.7400000000000001,1.08 -0.7400000000000001,1.7600000000000002 v42.9 c0,8.96 3.18,16.62 9.54,22.98 c6.36,6.36 14.02,9.54 22.98,9.54 h0.28 c5.74,0 11.12,-1.42 16.12,-4.26 c4.82,-2.7800000000000002 8.68,-6.55 11.58,-11.3 v20.38 c0,7.66 -2.6900000000000004,14.18 -8.06,19.55 c-5.44,5.43 -11.98,8.15 -19.64,8.15 h-0.28 c-5.68,0 -10.870000000000001,-1.58 -15.57,-4.73 c-4.08,-2.7800000000000002 -7.2,-6.39 -9.36,-10.84 c-0.25,-0.6200000000000001 -0.7100000000000001,-1.02 -1.3900000000000001,-1.2 c-0.6200000000000001,-0.25 -1.2,-0.22000000000000003 -1.7600000000000002,0.09000000000000002 c-0.6200000000000001,0.31000000000000005 -1.05,0.77 -1.3,1.3900000000000001 c-0.19000000000000003,0.6200000000000001 -0.16000000000000003,1.24 0.09000000000000002,1.85 c2.59,5.19 6.27,9.42 11.03,12.69 c5.5,3.7 11.58,5.5600000000000005 18.25,5.5600000000000005 h0.28 c9.02,0 16.71,-3.18 23.07,-9.54 c6.36,-6.36 9.54,-14.02 9.54,-22.98 v-80.23 c0,-0.6800000000000002 -0.25,-1.27 -0.7400000000000001,-1.7600000000000002 C428.3799926757813,286.8470751953125 427.78999267578126,286.6270751953125 427.1099926757812,286.6270751953125 z" id="svg_15"/>
		<path d="M521.2899926757813,261.17707519531245 c-15.25,0 -28.12,5.46 -38.63,16.38 c-10.51,10.82 -15.76,23.95 -15.76,39.4 c0,15.25 5.3,28.33 15.92,39.25 c10.51,10.82 23.33,16.22 38.47,16.22 c15.45,0 28.48,-5.46 39.09,-16.38 c10.61,-10.71 15.92,-23.74 15.92,-39.09 c0,-15.45 -5.3100000000000005,-28.64 -15.92,-39.56 C549.6599926757813,266.58707519531254 536.6299926757813,261.17707519531245 521.2899926757813,261.17707519531245 zM555.5899926757812,352.2470751953125 c-9.37,9.74 -20.81,14.61 -34.3,14.61 c-13.5,0 -24.83,-4.92 -33.99,-14.77 c-9.17,-9.84 -13.75,-21.56 -13.75,-35.14 c0,-13.78 4.58,-25.6 13.75,-35.45 c9.17,-9.84 20.5,-14.77 33.99,-14.77 c13.6,0 25.03,4.93 34.3,14.77 c9.27,9.85 13.91,21.66 13.91,35.45 C569.4899926757812,330.7470751953125 564.8599926757812,342.5070751953125 555.5899926757812,352.2470751953125 z" id="svg_16"/>
		<path d="M607.4999926757813,272.92707519531245 c3.3,-2.88 7.42,-4.33 12.36,-4.33 h11.74 v-5.5600000000000005 h-11.74 c-6.18,0 -11.59,1.86 -16.22,5.5600000000000005 c-5.25,4.23 -7.88,9.89 -7.88,17 v6.49 v5.72 h-7.42 v5.41 h7.42 v67.37 h5.72 v-67.21 h30.13 v-5.5600000000000005 h-30.13 v-10.66 C601.4699926757812,281.05707519531245 603.4799926757812,276.32707519531255 607.4999926757813,272.92707519531245 z" id="svg_17"/>
	</g>
</g></g></svg>