<?xml version="1.0" encoding="utf-8"?>
<!-- Generator: Adobe Illustrator 24.3.0, SVG Export Plug-In . SVG Version: 6.00 Build 0)  -->
<svg version="1.1" id="Layer_1" xmlns="http://www.w3.org/2000/svg" xmlns:xlink="http://www.w3.org/1999/xlink" x="0px" y="0px"
	 viewBox="0 0 1700.79 1700.79" style="enable-background:new 0 0 1700.79 1700.79;" xml:space="preserve">
<style type="text/css">
	.st0{fill:#009CCF;}
	.st1{fill:#F9E90D;}
</style>
<rect class="st0" width="1700.79" height="1700.79"/>
<g>
	<g>
		<path class="st1" d="M383.38,711.7c24.09-41.61,58.46-75.19,102.16-99.81c26.29-14.81,48.15-21.71,52.73-23.12
			c8.57-2.63,42.29-12.49,87.85-10.74c61.22,2.35,104.69,24.16,115.66,29.92c21.17,11.12,37.13,23.26,47.81,32.39
			c14.09-0.31,28.17-0.62,42.26-0.93c-17.3-17.03-44.85-40.38-83.59-59.53c-58.08-28.71-109.05-32.05-122.45-32.69
			c-21.71-1.03-87.3-1.77-156.48,35.67c-10.82,5.86-38.08,21.49-66.78,49.42c-50.49,49.15-79.19,106.52-87.1,174.46
			c11.64,0.07,23.27,0.37,34.91,0.62C355.44,772.95,366.47,740.91,383.38,711.7z"/>
		<path class="st1" d="M629.52,1123.03c-20.41,1.17-80.03,3.85-141.65-29.23c-7.21-3.87-32.68-18.06-59.63-44.34
			c-34.47-33.63-58.04-72.94-70.56-117.41c-6.64,1.45-13.68,1.64-20.35,1.66c-4.56,0.01-9.11-0.17-13.65-0.44
			c11.6,45.08,32.78,85.6,63.36,121.09c21.21,24.45,45.48,44.63,72.44,60.27c4.54,2.64,16.3,9.28,31.42,15.66
			c60.49,25.53,117.97,22.84,137.37,21.73c23.99-1.37,76.1-4.92,133.24-36.39c33.98-18.72,57.84-40.76,72.79-56.75H793.6
			C771.77,1076.41,713.58,1118.2,629.52,1123.03z"/>
		<rect x="886.49" y="685.87" class="st1" width="30.38" height="327.25"/>
		<path class="st1" d="M1183.49,816.77c-11.86-16.49-25.64-28.86-41.34-37.11c-15.7-8.25-33.24-12.37-52.63-12.37
			c-33.57,0-62.28,12.08-86.15,36.24c-23.87,24.16-35.81,53.24-35.81,87.24c0,34.72,11.83,64.2,35.48,88.43
			c23.65,24.23,52.19,36.35,85.61,36.35c18.81,0,36.13-3.91,51.97-11.72c15.84-7.81,30.13-19.46,42.86-34.94v40.58h29.95V773.37
			h-29.95V816.77z M1173.41,940.95c-8.02,14.31-19.47,25.65-34.36,34.03c-14.89,8.38-30.64,12.57-47.25,12.57
			c-16.48,0-31.9-4.23-46.28-12.68c-14.38-8.45-25.83-20.27-34.36-35.44c-8.52-15.17-12.79-31.07-12.79-47.69
			c0-16.76,4.22-32.66,12.68-47.68c8.45-15.03,19.83-26.7,34.14-35.01c14.31-8.31,29.91-12.46,46.82-12.46
			c26.3,0,48.44,9.18,66.44,27.53c17.99,18.35,26.99,41.19,26.99,68.5C1185.44,910.53,1181.43,926.65,1173.41,940.95z"/>
		<polygon class="st1" points="1446.63,773.37 1367.84,955.18 1286.69,773.37 1254.58,773.37 1351.49,991.59 1306.04,1095.84 
			1338.13,1095.84 1478.97,773.37 		"/>
	</g>
	<g>
		<path d="M285.66,854.53c3.52-5.99,5.28-12.47,5.28-19.46c0-10.81-3.83-20.04-11.49-27.7c-7.66-7.66-16.89-11.49-27.7-11.49H224.6
			c-0.74,0-1.39,0.28-1.95,0.83c-0.56,0.56-0.83,1.2-0.83,1.95v110.53c0,0.74,0.28,1.39,0.83,1.95c0.56,0.56,1.2,0.83,1.95,0.83
			h44.56c5.99,0,11.12-2.13,15.38-6.39c4.26-4.26,6.39-9.39,6.39-15.38c0-5.56-1.85-10.41-5.56-14.55
			c-3.65-4.08-8.19-6.45-13.62-7.13C277.63,865.06,282.26,860.4,285.66,854.53z M280.56,878.71c3.15,3.21,4.73,7.04,4.73,11.49
			c0,4.45-1.57,8.25-4.73,11.39c-3.15,3.15-6.95,4.73-11.4,4.73h-41.69v-32.33h41.69C273.61,873.99,277.41,875.56,280.56,878.71z
			 M251.75,868.33h-24.27v-66.8h24.27c9.26,0,17.17,3.28,23.72,9.82c6.55,6.55,9.82,14.45,9.82,23.72c0,9.14-3.27,16.99-9.82,23.53
			C268.92,865.09,261.01,868.33,251.75,868.33z"/>
		<path d="M331.24,832.76h-0.28c-8.77,0-16.09,3.15-21.96,9.45c-5.87,6.3-8.8,14.14-8.8,23.53v13.25c0,9.08,3.24,16.83,9.73,23.25
			c6.42,6.49,14.18,9.73,23.25,9.73h0.37c5.25,0,10.19-1.17,14.82-3.52c4.63-2.35,8.52-5.65,11.67-9.91
			c0.37-0.49,0.52-1.08,0.46-1.76c-0.12-0.68-0.46-1.23-1.02-1.67c-0.49-0.37-1.08-0.52-1.76-0.46c-0.68,0.12-1.24,0.46-1.67,1.02
			c-5.62,7.6-13.13,11.4-22.51,11.4h-0.37c-7.72,0-14.33-2.75-19.83-8.25c-5.5-5.5-8.24-12.11-8.24-19.83v-4.17h54.38
			c0.68,0,1.27-0.25,1.76-0.74c0.49-0.49,0.74-1.08,0.74-1.76v-6.58c0-9.39-2.93-17.23-8.8-23.53
			C347.33,835.91,340.01,832.76,331.24,832.76z M357.09,869.91h-51.98v-4.17c0-8.15,2.44-14.88,7.32-20.2
			c4.88-5.25,11.06-7.88,18.53-7.88h0.28c7.47,0,13.65,2.63,18.53,7.88c4.88,5.31,7.32,12.04,7.32,20.2V869.91z"/>
		<path d="M406.38,832.76h-0.37c-9.08,0-16.83,3.21-23.25,9.64c-6.49,6.49-9.73,14.27-9.73,23.35v13.25
			c0,9.08,3.24,16.86,9.73,23.35c6.42,6.42,14.17,9.64,23.25,9.64h0.37c5.8,0,11.24-1.45,16.31-4.35c4.88-2.78,8.8-6.58,11.77-11.4
			v13.34c0,0.62,0.25,1.17,0.74,1.67c0.43,0.5,0.99,0.74,1.67,0.74c0.68,0,1.27-0.25,1.76-0.74c0.49-0.49,0.74-1.05,0.74-1.67
			v-43.82c0-9.08-3.24-16.86-9.73-23.35C423.21,835.97,415.46,832.76,406.38,832.76z M434.45,878.99c0,7.72-2.75,14.33-8.24,19.83
			c-5.5,5.5-12.11,8.25-19.83,8.25h-0.37c-7.72,0-14.33-2.75-19.83-8.25c-5.5-5.5-8.25-12.11-8.25-19.83v-13.25
			c0-7.72,2.75-14.33,8.25-19.83c5.5-5.5,12.11-8.25,19.83-8.25h0.37c7.72,0,14.33,2.75,19.83,8.25c5.5,5.5,8.24,12.11,8.24,19.83
			V878.99z"/>
		<path d="M517.84,832.94c-0.68,0-1.27,0.22-1.76,0.65c-0.43,0.5-0.65,1.08-0.65,1.76v43.64c0,7.78-2.75,14.39-8.25,19.83
			c-5.5,5.5-12.11,8.25-19.83,8.25h-0.28c-7.78,0-14.39-2.75-19.83-8.25c-5.5-5.44-8.25-12.05-8.25-19.83v-43.64
			c0-0.68-0.25-1.27-0.74-1.76c-0.5-0.43-1.08-0.65-1.76-0.65c-0.68,0-1.24,0.22-1.67,0.65c-0.5,0.5-0.74,1.08-0.74,1.76v43.64
			c0,9.08,3.21,16.86,9.64,23.35c6.49,6.42,14.27,9.64,23.35,9.64h0.28c9.08,0,16.83-3.21,23.25-9.64
			c6.42-6.49,9.64-14.27,9.64-23.35v-43.64c0-0.68-0.22-1.27-0.65-1.76C519.1,833.16,518.51,832.94,517.84,832.94z"/>
		<path d="M571.29,907.15h-5.84c-7.66,0-14.21-2.72-19.64-8.15c-5.44-5.44-8.15-11.98-8.15-19.64v-41.97h22.05
			c1.36,0,2.04-0.68,2.04-2.04c0-1.36-0.68-2.04-2.04-2.04h-22.05v-34.65c0-0.68-0.22-1.27-0.65-1.76c-0.5-0.49-1.08-0.74-1.76-0.74
			c-0.68,0-1.24,0.25-1.67,0.74c-0.5,0.5-0.74,1.08-0.74,1.76v80.7c0,8.96,3.18,16.65,9.54,23.07c6.42,6.36,14.11,9.54,23.07,9.54
			h5.84c0.68,0,1.27-0.25,1.76-0.74c0.43-0.43,0.65-0.99,0.65-1.67c0-0.68-0.22-1.27-0.65-1.76
			C572.56,907.37,571.97,907.15,571.29,907.15z"/>
		<path d="M648.93,833.5c-0.62,0-1.17,0.22-1.67,0.65c-0.5,0.5-0.74,1.08-0.74,1.76v42.9c0,7.66-2.69,14.17-8.06,19.55
			c-5.44,5.44-11.98,8.15-19.64,8.15h-0.28c-7.6,0-14.11-2.72-19.55-8.15c-5.44-5.37-8.15-11.89-8.15-19.55v-42.9
			c0-0.68-0.22-1.27-0.65-1.76c-0.5-0.43-1.08-0.65-1.76-0.65c-0.68,0-1.24,0.22-1.67,0.65c-0.5,0.5-0.74,1.08-0.74,1.76v42.9
			c0,8.96,3.18,16.62,9.54,22.98c6.36,6.36,14.02,9.54,22.98,9.54h0.28c5.74,0,11.12-1.42,16.12-4.26
			c4.82-2.78,8.68-6.55,11.58-11.3v20.38c0,7.66-2.69,14.18-8.06,19.55c-5.44,5.43-11.98,8.15-19.64,8.15h-0.28
			c-5.68,0-10.87-1.58-15.57-4.73c-4.08-2.78-7.2-6.39-9.36-10.84c-0.25-0.62-0.71-1.02-1.39-1.2c-0.62-0.25-1.2-0.22-1.76,0.09
			c-0.62,0.31-1.05,0.77-1.3,1.39c-0.19,0.62-0.16,1.24,0.09,1.85c2.59,5.19,6.27,9.42,11.03,12.69c5.5,3.7,11.58,5.56,18.25,5.56
			h0.28c9.02,0,16.71-3.18,23.07-9.54c6.36-6.36,9.54-14.02,9.54-22.98v-80.23c0-0.68-0.25-1.27-0.74-1.76
			C650.2,833.72,649.61,833.5,648.93,833.5z"/>
		<path d="M743.11,808.05c-15.25,0-28.12,5.46-38.63,16.38c-10.51,10.82-15.76,23.95-15.76,39.4c0,15.25,5.3,28.33,15.92,39.25
			c10.51,10.82,23.33,16.22,38.47,16.22c15.45,0,28.48-5.46,39.09-16.38c10.61-10.71,15.92-23.74,15.92-39.09
			c0-15.45-5.31-28.64-15.92-39.56C771.48,813.46,758.45,808.05,743.11,808.05z M777.41,899.12c-9.37,9.74-20.81,14.61-34.3,14.61
			c-13.5,0-24.83-4.92-33.99-14.77c-9.17-9.84-13.75-21.56-13.75-35.14c0-13.78,4.58-25.6,13.75-35.45
			c9.17-9.84,20.5-14.77,33.99-14.77c13.6,0,25.03,4.93,34.3,14.77c9.27,9.85,13.91,21.66,13.91,35.45
			C791.31,877.62,786.68,889.38,777.41,899.12z"/>
		<path d="M829.32,819.8c3.3-2.88,7.42-4.33,12.36-4.33h11.74v-5.56h-11.74c-6.18,0-11.59,1.86-16.22,5.56
			c-5.25,4.23-7.88,9.89-7.88,17v6.49v5.72h-7.42v5.41h7.42v67.37h5.72v-67.21h30.13v-5.56h-30.13v-10.66
			C823.29,827.93,825.3,823.2,829.32,819.8z"/>
	</g>
</g>
</svg>
