<svg xmlns="http://www.w3.org/2000/svg" width="1257" height="606"><rect width="100" height="100" fill="none"/><style type="text/css">  
	.st1{fill:rgb(192,148,41);}
	.st2{fill:rgb(83,136,142);}
</style><g class="currentLayer"><title>  Layer 1</title><path class="st1" d="M161.6 164.8c24.1-41.6 58.5-75.2 102.2-99.8 26.3-14.8 48.2-21.7 52.7-23.1 8.6-2.6 42.3-12.5 87.9-10.7 61.2 2.4 104.7 24.2 115.7 29.9 21.2 11.1 37.1 23.3 47.8 32.4 14.1-0.3 28.2-0.6 42.3-0.9 -17.3-17-44.8-40.4-83.6-59.5 -58.1-28.7-109-32-122.4-32.7 -21.7-1-87.3-1.8-156.5 35.7 -10.8 5.9-38.1 21.5-66.8 49.4 -50.5 49.2-79.2 106.5-87.1 174.5 11.6 0.1 23.3 0.4 34.9 0.6C133.6 226.1 144.6 194 161.6 164.8z"/><path class="st1" d="M407.7 576.2c-20.4 1.2-80 3.9-141.6-29.2 -7.2-3.9-32.7-18.1-59.6-44.3 -34.5-33.6-58-72.9-70.6-117.4 -6.6 1.5-13.7 1.6-20.3 1.7 -4.6 0-9.1-0.2-13.6-0.4 11.6 45.1 32.8 85.6 63.4 121.1 21.2 24.5 45.5 44.6 72.4 60.3 4.5 2.6 16.3 9.3 31.4 15.7 60.5 25.5 118 22.8 137.4 21.7 24-1.4 76.1-4.9 133.2-36.4 34-18.7 57.8-40.8 72.8-56.7H571.8C549.9 529.5 491.8 571.3 407.7 576.2z"/><rect x="664.7" y="139" class="st1" width="30.4" height="327.3"/><path class="st1" d="M961.7 269.9c-11.9-16.5-25.6-28.9-41.3-37.1 -15.7-8.2-33.2-12.4-52.6-12.4 -33.6 0-62.3 12.1-86.1 36.2 -23.9 24.2-35.8 53.2-35.8 87.2 0 34.7 11.8 64.2 35.5 88.4 23.7 24.2 52.2 36.4 85.6 36.4 18.8 0 36.1-3.9 52-11.7 15.8-7.8 30.1-19.5 42.9-34.9v40.6h30V226.5h-29.9V269.9zM951.6 394.1c-8 14.3-19.5 25.7-34.4 34 -14.9 8.4-30.6 12.6-47.2 12.6 -16.5 0-31.9-4.2-46.3-12.7 -14.4-8.4-25.8-20.3-34.4-35.4 -8.5-15.2-12.8-31.1-12.8-47.7 0-16.8 4.2-32.7 12.7-47.7 8.5-15 19.8-26.7 34.1-35 14.3-8.3 29.9-12.5 46.8-12.5 26.3 0 48.4 9.2 66.4 27.5 18 18.4 27 41.2 27 68.5C963.6 363.7 959.6 379.8 951.6 394.1z"/><polygon class="st1" points="1224.8 226.5 1146 408.3 1064.9 226.5 1032.8 226.5 1129.7 444.7 1084.2 549 1116.3 549 1257.1 226.5 "/><path class="st2" d="M63.8 307.7c3.5-6 5.3-12.5 5.3-19.5 0-10.8-3.8-20-11.5-27.7 -7.7-7.7-16.9-11.5-27.7-11.5H2.8c-0.7 0-1.4 0.3-1.9 0.8 -0.6 0.6-0.8 1.2-0.8 2v110.5c0 0.7 0.3 1.4 0.8 2 0.6 0.6 1.2 0.8 2 0.8h44.6c6 0 11.1-2.1 15.4-6.4 4.3-4.3 6.4-9.4 6.4-15.4 0-5.6-1.8-10.4-5.6-14.5 -3.6-4.1-8.2-6.4-13.6-7.1C55.8 318.2 60.4 313.5 63.8 307.7zM58.7 331.8c3.2 3.2 4.7 7 4.7 11.5 0 4.5-1.6 8.3-4.7 11.4 -3.1 3.2-6.9 4.7-11.4 4.7h-41.7v-32.3h41.7C51.8 327.1 55.6 328.7 58.7 331.8zM29.9 321.5h-24.3v-66.8h24.3c9.3 0 17.2 3.3 23.7 9.8 6.6 6.6 9.8 14.5 9.8 23.7 0 9.1-3.3 17-9.8 23.5C47.1 318.2 39.2 321.5 29.9 321.5z"/><path class="st2" d="M109.4 285.9h-0.3c-8.8 0-16.1 3.2-22 9.5 -5.9 6.3-8.8 14.1-8.8 23.5v13.3c0 9.1 3.2 16.8 9.7 23.3 6.4 6.5 14.2 9.7 23.3 9.7h0.4c5.3 0 10.2-1.2 14.8-3.5 4.6-2.3 8.5-5.6 11.7-9.9 0.4-0.5 0.5-1.1 0.5-1.8 -0.1-0.7-0.5-1.2-1-1.7 -0.5-0.4-1.1-0.5-1.8-0.5 -0.7 0.1-1.2 0.5-1.7 1 -5.6 7.6-13.1 11.4-22.5 11.4h-0.4c-7.7 0-14.3-2.7-19.8-8.2 -5.5-5.5-8.2-12.1-8.2-19.8v-4.2h54.4c0.7 0 1.3-0.2 1.8-0.7 0.5-0.5 0.7-1.1 0.7-1.8v-6.6c0-9.4-2.9-17.2-8.8-23.5C125.5 289 118.2 285.9 109.4 285.9zM135.3 323h-52v-4.2c0-8.1 2.4-14.9 7.3-20.2 4.9-5.2 11.1-7.9 18.5-7.9h0.3c7.5 0 13.7 2.6 18.5 7.9 4.9 5.3 7.3 12 7.3 20.2V323z"/><path class="st2" d="M184.6 285.9h-0.4c-9.1 0-16.8 3.2-23.2 9.6 -6.5 6.5-9.7 14.3-9.7 23.4v13.3c0 9.1 3.2 16.9 9.7 23.4 6.4 6.4 14.2 9.6 23.3 9.6h0.4c5.8 0 11.2-1.4 16.3-4.3 4.9-2.8 8.8-6.6 11.8-11.4v13.3c0 0.6 0.3 1.2 0.7 1.7 0.4 0.5 1 0.7 1.7 0.7 0.7 0 1.3-0.2 1.8-0.7 0.5-0.5 0.7-1 0.7-1.7v-43.8c0-9.1-3.2-16.9-9.7-23.3C201.4 289.1 193.6 285.9 184.6 285.9zM212.6 332.1c0 7.7-2.7 14.3-8.2 19.8 -5.5 5.5-12.1 8.3-19.8 8.3h-0.4c-7.7 0-14.3-2.7-19.8-8.2 -5.5-5.5-8.2-12.1-8.2-19.8v-13.2c0-7.7 2.8-14.3 8.3-19.8 5.5-5.5 12.1-8.2 19.8-8.2h0.4c7.7 0 14.3 2.8 19.8 8.3 5.5 5.5 8.2 12.1 8.2 19.8V332.1z"/><path class="st2" d="M296 286.1c-0.7 0-1.3 0.2-1.8 0.7 -0.4 0.5-0.7 1.1-0.7 1.8v43.6c0 7.8-2.7 14.4-8.2 19.8 -5.5 5.5-12.1 8.3-19.8 8.3h-0.3c-7.8 0-14.4-2.7-19.8-8.2 -5.5-5.4-8.2-12-8.2-19.8v-43.6c0-0.7-0.2-1.3-0.7-1.8 -0.5-0.4-1.1-0.7-1.8-0.7 -0.7 0-1.2 0.2-1.7 0.7 -0.5 0.5-0.7 1.1-0.7 1.8v43.6c0 9.1 3.2 16.9 9.6 23.4 6.5 6.4 14.3 9.6 23.4 9.6h0.3c9.1 0 16.8-3.2 23.3-9.6 6.4-6.5 9.6-14.3 9.6-23.3v-43.6c0-0.7-0.2-1.3-0.7-1.8C297.3 286.3 296.7 286.1 296 286.1z"/><path class="st2" d="M349.5 360.3h-5.8c-7.7 0-14.2-2.7-19.6-8.1 -5.4-5.4-8.1-12-8.1-19.6v-42h22.1c1.4 0 2-0.7 2-2 0-1.4-0.7-2-2-2h-22v-34.6c0-0.7-0.2-1.3-0.7-1.8 -0.5-0.5-1.1-0.7-1.8-0.7 -0.7 0-1.2 0.3-1.7 0.7 -0.5 0.5-0.7 1.1-0.7 1.8v80.7c0 9 3.2 16.7 9.5 23.1 6.4 6.4 14.1 9.5 23.1 9.5h5.8c0.7 0 1.3-0.2 1.8-0.7 0.4-0.4 0.7-1 0.7-1.7 0-0.7-0.2-1.3-0.7-1.8C350.7 360.5 350.1 360.3 349.5 360.3z"/><path class="st2" d="M427.1 286.6c-0.6 0-1.2 0.2-1.7 0.7 -0.5 0.5-0.7 1.1-0.7 1.8v42.9c0 7.7-2.7 14.2-8.1 19.6 -5.4 5.4-12 8.2-19.6 8.2h-0.3c-7.6 0-14.1-2.7-19.5-8.1 -5.4-5.4-8.1-11.9-8.1-19.5v-42.9c0-0.7-0.2-1.3-0.7-1.8 -0.5-0.4-1.1-0.7-1.8-0.7 -0.7 0-1.2 0.2-1.7 0.7 -0.5 0.5-0.7 1.1-0.7 1.8v42.9c0 9 3.2 16.6 9.5 23 6.4 6.4 14 9.5 23 9.5h0.3c5.7 0 11.1-1.4 16.1-4.3 4.8-2.8 8.7-6.5 11.6-11.3v20.4c0 7.7-2.7 14.2-8.1 19.6 -5.4 5.4-12 8.2-19.6 8.2h-0.3c-5.7 0-10.9-1.6-15.6-4.7 -4.1-2.8-7.2-6.4-9.4-10.8 -0.2-0.6-0.7-1-1.4-1.2 -0.6-0.2-1.2-0.2-1.8 0.1 -0.6 0.3-1 0.8-1.3 1.4 -0.2 0.6-0.2 1.2 0.1 1.9 2.6 5.2 6.3 9.4 11 12.7 5.5 3.7 11.6 5.6 18.3 5.6h0.3c9 0 16.7-3.2 23.1-9.5 6.4-6.4 9.5-14 9.5-23v-80.2c0-0.7-0.2-1.3-0.7-1.8C428.4 286.8 427.8 286.6 427.1 286.6z"/><path class="st2" d="M521.3 261.2c-15.2 0-28.1 5.5-38.6 16.4 -10.5 10.8-15.8 24-15.8 39.4 0 15.3 5.3 28.3 15.9 39.3 10.5 10.8 23.3 16.2 38.5 16.2 15.5 0 28.5-5.5 39.1-16.4 10.6-10.7 15.9-23.7 15.9-39.1 0-15.4-5.3-28.6-15.9-39.6C549.7 266.6 536.6 261.2 521.3 261.2zM555.6 352.2c-9.4 9.7-20.8 14.6-34.3 14.6 -13.5 0-24.8-4.9-34-14.8 -9.2-9.8-13.7-21.6-13.7-35.1 0-13.8 4.6-25.6 13.8-35.4 9.2-9.8 20.5-14.8 34-14.8 13.6 0 25 4.9 34.3 14.8 9.3 9.9 13.9 21.7 13.9 35.5C569.5 330.7 564.9 342.5 555.6 352.2z"/><path class="st2" d="M607.5 272.9c3.3-2.9 7.4-4.3 12.4-4.3h11.7v-5.6h-11.7c-6.2 0-11.6 1.9-16.2 5.6 -5.2 4.2-7.9 9.9-7.9 17v6.5 5.7h-7.4v5.4h7.4v67.4h5.7v-67.2h30.1v-5.6h-30.1v-10.7C601.5 281.1 603.5 276.3 607.5 272.9z"/></g></svg>